<svg id="svg" version="1.1" xmlns="http://www.w3.org/2000/svg" xmlns:xlink="http://www.w3.org/1999/xlink" width="400" height="218.1818181818182" viewBox="0, 0, 400,218.1818181818182"><g id="svgg"><path id="path0" d="M173.510 34.024 C 168.712 35.912,169.781 43.471,174.908 43.906 C 175.276 43.937,175.605 44.063,175.649 44.189 C 175.691 44.314,176.456 46.592,177.348 49.250 C 178.240 51.908,180.071 57.308,181.418 61.250 C 182.765 65.192,184.038 68.942,184.247 69.583 C 184.456 70.225,184.790 71.157,184.989 71.655 L 185.352 72.560 185.012 73.019 L 184.672 73.479 187.609 82.114 C 190.928 91.871,192.279 95.790,193.399 98.905 C 194.294 101.395,194.375 101.200,192.311 101.553 C 191.427 101.704,189.852 102.108,188.811 102.452 C 187.769 102.795,186.853 103.078,186.774 103.080 C 186.655 103.083,185.856 101.249,184.925 98.833 C 184.802 98.513,184.429 97.622,184.097 96.854 C 183.766 96.085,183.275 94.848,183.006 94.104 C 182.738 93.359,182.282 92.188,181.992 91.500 C 180.980 89.095,179.475 85.399,178.666 83.333 C 178.217 82.188,177.578 80.612,177.246 79.833 C 176.913 79.054,176.532 78.117,176.398 77.750 C 176.264 77.383,175.788 76.221,175.339 75.167 C 174.891 74.112,174.265 72.537,173.949 71.667 C 171.093 63.798,168.117 58.792,163.630 54.310 C 162.042 52.723,158.300 49.566,157.208 48.891 C 156.956 48.735,156.225 48.268,155.583 47.854 C 154.036 46.854,150.063 44.841,148.500 44.264 C 144.087 42.638,144.733 42.497,143.606 45.333 C 139.989 54.438,139.642 66.658,142.755 75.273 C 143.631 77.697,145.170 80.641,148.754 86.750 C 149.561 88.125,150.650 90.000,151.174 90.917 C 151.698 91.833,152.911 93.933,153.869 95.583 C 157.108 101.164,158.887 104.244,159.838 105.917 C 161.195 108.306,163.827 112.869,165.414 115.583 C 167.692 119.481,168.000 120.020,168.000 120.111 C 168.000 120.159,168.155 120.417,168.345 120.683 C 168.769 121.279,168.996 120.402,165.920 130.083 C 164.871 133.388,161.839 143.058,160.748 146.583 C 160.436 147.592,159.793 149.654,159.320 151.167 C 158.047 155.234,157.841 156.037,157.998 156.326 C 158.147 156.603,160.322 158.737,167.006 165.166 C 169.340 167.411,172.338 170.306,173.667 171.598 C 179.345 177.119,178.511 176.655,182.167 176.323 L 184.083 176.149 184.917 177.050 C 193.143 185.944,207.973 185.966,215.277 177.095 L 216.044 176.163 217.355 176.248 C 221.386 176.510,221.229 176.512,221.705 176.198 C 222.088 175.945,227.124 171.139,230.734 167.581 C 231.293 167.030,234.138 164.261,237.056 161.426 C 241.747 156.870,242.353 156.223,242.284 155.845 C 242.159 155.161,240.478 149.687,238.876 144.750 C 238.460 143.467,237.762 141.217,237.326 139.750 C 236.890 138.283,235.971 135.321,235.284 133.167 C 234.597 131.012,233.795 128.462,233.502 127.500 C 233.209 126.537,232.650 124.747,232.261 123.521 L 231.552 121.293 232.001 120.438 C 232.547 119.400,234.239 116.424,234.998 115.167 C 235.476 114.376,236.021 113.436,237.706 110.500 C 237.890 110.179,238.758 108.679,239.634 107.167 C 240.510 105.654,241.664 103.648,242.197 102.708 C 245.076 97.637,245.384 97.101,249.121 90.667 C 254.019 82.232,255.151 80.219,256.006 78.417 C 260.743 68.431,260.753 55.743,256.035 44.250 C 255.474 42.884,255.500 42.889,253.290 43.687 C 245.415 46.532,237.256 52.358,233.301 57.961 C 229.857 62.841,229.570 63.415,225.556 73.417 C 224.599 75.800,223.411 78.725,222.915 79.917 C 222.419 81.108,221.190 84.146,220.185 86.667 C 219.180 89.188,218.121 91.813,217.832 92.500 C 217.544 93.188,217.135 94.200,216.925 94.750 C 216.235 96.553,213.818 102.550,213.668 102.831 C 213.536 103.078,213.322 103.041,211.555 102.470 C 210.474 102.121,208.778 101.673,207.786 101.476 C 206.274 101.175,206.001 101.074,206.095 100.850 C 206.725 99.338,213.229 80.393,214.512 76.333 C 215.427 73.438,215.435 73.389,215.073 72.988 C 214.834 72.725,214.871 72.531,215.505 70.725 C 216.556 67.731,217.741 64.284,220.395 56.500 C 221.723 52.604,223.219 48.219,223.718 46.756 L 224.627 44.096 225.689 43.831 C 230.815 42.552,231.466 36.046,226.669 34.030 C 221.890 32.021,217.572 38.258,221.065 42.124 C 221.802 42.940,221.802 42.875,221.066 44.917 C 220.366 46.856,217.687 54.599,217.000 56.667 C 216.741 57.446,215.879 59.958,215.084 62.250 C 214.289 64.542,213.278 67.504,212.838 68.833 C 212.134 70.960,211.950 71.341,211.311 72.007 C 210.619 72.726,210.496 73.023,208.807 78.007 C 207.830 80.891,205.891 86.587,204.497 90.667 C 203.104 94.746,201.774 98.698,201.541 99.450 C 201.080 100.941,201.014 100.991,199.667 100.860 C 199.097 100.804,199.074 100.773,198.683 99.526 C 198.463 98.824,198.112 97.800,197.904 97.250 C 197.696 96.700,196.998 94.638,196.352 92.667 C 195.707 90.696,194.721 87.771,194.161 86.167 C 193.602 84.563,192.561 81.525,191.848 79.417 C 189.791 73.332,189.521 72.669,188.774 71.881 C 188.213 71.288,187.987 70.809,187.322 68.798 C 186.890 67.488,186.037 64.992,185.427 63.250 C 184.817 61.508,183.764 58.433,183.087 56.417 C 182.410 54.400,181.169 50.762,180.330 48.333 C 179.490 45.904,178.723 43.676,178.626 43.383 C 178.463 42.892,178.491 42.808,178.977 42.355 C 182.830 38.755,178.449 32.079,173.510 34.024 M149.480 51.694 C 154.427 54.478,157.304 56.713,160.572 60.309 C 163.929 64.003,165.054 66.248,170.853 80.819 C 172.042 83.806,173.158 86.587,173.334 87.000 C 174.430 89.570,176.011 93.487,176.665 95.250 C 176.835 95.708,177.248 96.721,177.583 97.500 C 177.919 98.279,178.272 99.142,178.369 99.417 C 178.467 99.692,178.986 100.945,179.523 102.201 C 180.060 103.457,180.500 104.542,180.500 104.611 C 180.500 104.680,180.754 105.339,181.065 106.076 C 181.375 106.814,181.905 108.140,182.242 109.024 C 183.170 111.460,182.996 111.361,184.940 110.551 C 195.636 106.090,205.562 106.098,215.385 110.574 C 216.100 110.900,216.746 111.167,216.821 111.167 C 217.013 111.167,220.624 102.679,221.572 100.000 C 221.783 99.404,222.198 98.392,222.494 97.750 C 222.791 97.108,223.205 96.096,223.415 95.500 C 223.626 94.904,224.111 93.667,224.494 92.750 C 225.651 89.982,227.804 84.704,228.607 82.667 C 230.148 78.758,231.849 74.519,232.754 72.333 C 233.267 71.096,233.749 69.896,233.827 69.667 C 236.087 62.961,242.394 56.296,250.949 51.571 C 252.003 50.989,251.928 50.914,252.317 52.929 C 253.798 60.614,253.536 66.905,251.490 72.750 C 250.861 74.547,248.788 78.863,248.249 79.500 C 248.133 79.637,247.678 80.425,247.240 81.250 C 246.801 82.075,246.315 82.938,246.158 83.167 C 246.002 83.396,245.351 84.521,244.711 85.667 C 242.978 88.774,239.224 95.328,237.123 98.917 C 236.479 100.017,235.109 102.379,234.078 104.167 C 233.048 105.954,231.509 108.617,230.659 110.083 C 229.809 111.550,228.647 113.575,228.077 114.583 C 227.507 115.592,226.785 116.867,226.472 117.417 L 225.903 118.417 223.409 119.667 C 213.884 124.441,208.326 133.857,207.225 147.083 C 206.920 150.739,206.963 150.617,205.667 151.501 C 204.606 152.225,201.928 154.218,201.262 154.781 C 200.234 155.648,200.386 155.711,196.583 152.839 C 196.217 152.562,195.342 151.915,194.639 151.401 L 193.360 150.466 193.249 149.025 C 192.068 133.780,186.428 123.981,176.107 119.247 C 174.548 118.532,174.255 118.333,173.990 117.813 C 173.721 117.287,172.381 114.947,169.086 109.250 C 168.609 108.425,167.560 106.625,166.755 105.250 C 165.950 103.875,164.823 101.925,164.252 100.917 C 162.779 98.319,161.388 95.912,157.370 89.000 C 156.863 88.129,156.071 86.742,155.608 85.917 C 155.146 85.092,154.389 83.766,153.926 82.970 C 149.706 75.726,148.928 74.102,148.010 70.629 C 146.617 65.362,146.570 59.874,147.857 53.042 C 148.254 50.934,148.203 50.976,149.480 51.694 M175.929 126.316 C 182.903 130.923,186.656 139.060,186.955 150.222 C 187.054 153.948,186.942 153.635,188.583 154.758 C 189.042 155.072,189.979 155.745,190.667 156.253 C 191.354 156.761,192.404 157.515,193.000 157.930 C 193.596 158.344,194.683 159.150,195.417 159.721 L 196.750 160.760 196.833 162.559 C 196.931 164.675,197.123 164.401,194.550 165.813 C 190.705 167.922,186.583 169.320,183.005 169.728 L 181.113 169.944 179.931 168.908 C 179.282 168.339,178.594 167.695,178.403 167.478 C 178.213 167.261,176.493 165.583,174.582 163.750 C 172.670 161.917,170.423 159.742,169.587 158.917 C 168.751 158.092,167.339 156.749,166.450 155.932 C 165.561 155.116,164.833 154.371,164.833 154.277 C 164.833 154.184,165.253 152.789,165.765 151.179 C 166.973 147.380,168.813 141.566,170.330 136.750 C 170.995 134.642,171.937 131.679,172.423 130.167 C 172.910 128.654,173.437 126.948,173.593 126.375 C 173.950 125.065,174.032 125.063,175.929 126.316 M226.714 126.512 C 227.036 127.634,229.803 136.495,231.523 141.917 C 232.075 143.658,232.703 145.646,232.917 146.333 C 233.131 147.021,233.723 148.896,234.233 150.500 C 234.743 152.104,235.204 153.642,235.258 153.917 C 235.351 154.388,235.184 154.582,232.303 157.331 C 230.624 158.934,227.713 161.749,225.833 163.588 C 219.316 169.965,219.255 170.017,218.498 169.910 C 218.270 169.878,217.483 169.767,216.750 169.662 C 213.405 169.188,209.245 167.715,205.673 165.740 C 203.162 164.351,203.236 164.454,203.302 162.467 L 203.356 160.850 205.220 159.454 C 206.918 158.181,208.651 156.907,210.417 155.632 C 210.783 155.367,211.540 154.818,212.099 154.412 L 213.114 153.673 213.223 150.545 C 213.638 138.580,217.760 129.969,225.003 125.939 C 226.334 125.198,226.336 125.198,226.714 126.512 M202.333 171.039 C 204.395 172.244,206.655 173.368,207.958 173.837 C 209.223 174.291,209.223 174.258,207.949 175.096 C 203.663 177.919,198.324 178.179,193.595 175.796 C 191.717 174.850,190.891 174.167,191.625 174.167 C 191.786 174.167,192.783 173.768,193.841 173.281 C 195.718 172.417,196.791 171.813,198.992 170.379 C 199.951 169.755,200.110 169.700,200.411 169.894 C 200.597 170.015,201.463 170.530,202.333 171.039 " stroke="none" fill="#fdfcfc" fill-rule="evenodd"></path></g></svg>